<svg xmlns="http://www.w3.org/2000/svg" xmlns:xlink="http://www.w3.org/1999/xlink" version="1.1" viewBox="0 0 160 80"><defs><filter id="c" width="156.2%" height="220%" x="-28.1%" y="-40%" filterUnits="objectBoundingBox"><feOffset dx="0" dy="12" in="SourceAlpha" result="shadowOffsetOuter1"/><feGaussianBlur in="shadowOffsetOuter1" result="shadowBlurOuter1" stdDeviation="10"/><feColorMatrix in="shadowBlurOuter1" type="matrix" values="0 0 0 0 0 0 0 0 0 0 0 0 0 0 0 0 0 0 0.12 0"/></filter><rect id="a" width="160" height="80" x="0" y="0" rx="2"/><path id="d" d="M36 20h124v57a3 3 0 0 1-3 3H32V24a4 4 0 0 1 4-4"/></defs><g fill="none" fill-rule="evenodd" stroke="none" stroke-width="1"><path fill="#FFF" d="M-32-451h975v840H-32z"/><g><mask id="b" fill="#fff"><use xlink:href="#a"/></mask><use xlink:href="#a" fill="#CEEFFF"/><g mask="url(#b)"><use xlink:href="#d" fill="#000" fill-opacity="1" filter="url(#c)"/><use xlink:href="#d" fill="#FFF" fill-rule="evenodd"/></g><path fill="#E6F6FF" d="M32 64h128v15a1 1 0 0 1-1 1H32z" mask="url(#b)"/><circle cx="64" cy="30" r="4" fill="#F0F2F5" mask="url(#b)"/><circle cx="48" cy="30" r="4" fill="#F0F2F5" mask="url(#b)"/><path fill="#005BD4" d="M32 40h128v24H32z" mask="url(#b)"/><path fill="#0076F7" d="M32 40h24v24H32z" mask="url(#b)"/><rect width="60" height="8" x="62" y="48" fill="#0076F7" mask="url(#b)" rx="4"/><rect width="12" height="8" x="38" y="48" fill="#3EA1FA" mask="url(#b)" rx="4"/></g></g></svg>