<svg xmlns="http://www.w3.org/2000/svg" xmlns:xlink="http://www.w3.org/1999/xlink" viewBox="0 0 32 32"><defs><path id="a" d="M2 0h28a2 2 0 0 1 2 2v28a2 2 0 0 1-2 2H2a2 2 0 0 1-2-2V2a2 2 0 0 1 2-2"/><path id="c" d="M10.636 0h4.728C21.238 0 26 4.835 26 10.8v6H0v-6C0 4.835 4.762 0 10.636 0"/><path id="e" d="M10.636 0v12H0v-1.2C0 4.835 4.762 0 10.636 0m4.728 0C21.238 0 26 4.835 26 10.8V12H15.364z"/><path id="g" d="M3.311 0C1.474 0 0 1.501 0 3.353v6.82c0 3.686 1.716 7.249 7.14 7.249 5.425 0 7.141-3.665 7.141-8.448V3.353C14.281 1.51 12.798 0 10.968 0z"/><path id="i" d="M7.505.052C1.56.052-.36 3.752.054 6.402l.298 2.955c0-.793.703-.82 1.156-1.647.606-1.102.153-2.703.975-2.906S6.166 5.85 7.493 5.85c1.225 0 3.979-1.444 5.01-1.046s.423 1.845 1.03 2.906c.485.847 1.1.828 1.1 1.647L15.01 6.4c0-2.797-1.56-6.349-7.504-6.349Z"/></defs><g fill="none" fill-rule="evenodd"><mask id="b" fill="#fff"><use xlink:href="#a"/></mask><use xlink:href="#a" fill="#E0F3FF"/><g mask="url(#b)"><g transform="translate(3 3)"><g transform="translate(0 19.2)"><mask id="d" fill="#fff"><use xlink:href="#c"/></mask><use xlink:href="#c" fill="#003964"/><path fill="#E5C3AF" d="M9.455-4.793C9.455-6.785 11.045-8.4 13-8.4c1.958 0 3.545 1.619 3.545 3.607v5.986c0 1.992-1.59 3.607-3.545 3.607-1.958 0-3.545-1.619-3.545-3.607z" mask="url(#d)"/><path fill="#DAB199" d="M9.455-7.193c0-1.992 1.59-3.607 3.545-3.607 1.958 0 3.545 1.619 3.545 3.607v5.986C16.545.785 14.955 2.4 13 2.4c-1.958 0-3.545-1.619-3.545-3.607z" mask="url(#d)"/><g mask="url(#d)"><mask id="f" fill="#fff"><use xlink:href="#e"/></mask><use xlink:href="#e" fill="#005EA4"/><path fill="#FFF" d="M1.182 2.4h23.636v1.2H1.182zM0 6h26v1.2H0zm-1.182 3.6h28.364v1.2H-1.182z" mask="url(#f)" opacity=".2"/><path fill="#FFF" d="M1.182 0h1.182v13.2H1.182zm3.545 0H5.91v13.2H4.727zM20.09 0h1.183v13.2H20.09zm3.546 0h1.182v13.2h-1.182zM8.273 0h1.182v13.2H8.273zm8.272 0h1.182v13.2h-1.182z" mask="url(#f)" opacity=".2"/><ellipse cx="13" cy="2.4" fill="#004273" mask="url(#f)" opacity=".2" rx="11.818" ry="7.2"/></g></g><path fill="#003964" d="M15.364 18.12q2.095.524 3.1 2.562.87 1.767 1.119 3.864a.6.6 0 0 1-.57.672l-3.65.101zm-4.724 0v7.2l-3.65-.102a.6.6 0 0 1-.57-.672q.25-2.097 1.12-3.864 1.005-2.038 3.1-2.563Z" opacity=".7"/><path fill="#337EB6" d="M8.273 19.51q.768-1.586 2.363-1.506v7.316l-3.078-1.059a.6.6 0 0 1-.394-.66q.405-2.64 1.109-4.09Zm7.091-1.39q1.36-.558 2.363 1.482.905 1.838 1.14 4.034a.6.6 0 0 1-.402.633l-3.101 1.05v-7.2Z"/><path fill="#E5C3AF" d="M18.318 8.4H19.5c1.305 0 2.364 1.075 2.364 2.4s-1.059 2.4-2.364 2.4h-1.182zm-10.636 0v4.8H6.5c-1.305 0-2.364-1.075-2.364-2.4S5.195 8.4 6.5 8.4z"/><g transform="translate(5.91 2.4)"><mask id="h" fill="#fff"><use xlink:href="#g"/></mask><use xlink:href="#g" fill="#FFEEE4"/><ellipse cx="1.182" cy="10.8" fill="#FADCD3" mask="url(#h)" rx="2.364" ry="2.4"/><ellipse cx="13" cy="10.8" fill="#FADCD3" mask="url(#h)" rx="2.364" ry="2.4"/></g><g transform="translate(5.557)"><mask id="j" fill="#fff"><use xlink:href="#i"/></mask><use xlink:href="#i" fill="#00375F"/><ellipse cx="10.398" cy="4.2" fill="#004273" mask="url(#j)" rx="8.273" ry="6.6"/></g><path fill="#004273" fill-rule="nonzero" d="m13.809 10.318-.017-.017c-.274-.314-.53-.461-.768-.461-.239 0-.495.147-.769.461l-.028.028c-.043 1.33-.998 2.271-2.362 2.271-1.396 0-2.363-.987-2.363-2.367q0-.138.013-.264l-1.508-.13a.24.24 0 0 1-.215-.26.237.237 0 0 1 .255-.218l1.581.136c.318-.811 1.2-1.097 2.237-1.097 1.126 0 2.068.336 2.306 1.314.274-.233.558-.354.853-.354q.436.002.843.346c.242-.971 1.181-1.306 2.304-1.306 1.04 0 1.923.287 2.24 1.102l1.638-.141a.237.237 0 0 1 .256.219.24.24 0 0 1-.216.26l-1.568.134q.015.123.014.259c0 1.381-.968 2.367-2.364 2.367-1.367 0-2.323-.946-2.362-2.282M9.865 12.12c1.13 0 1.891-.766 1.891-1.887 0-.936-.624-1.353-1.89-1.353s-1.892.417-1.892 1.353c0 1.12.762 1.887 1.891 1.887m6.306 0c1.13 0 1.891-.766 1.891-1.887 0-.936-.624-1.353-1.89-1.353s-1.892.417-1.892 1.353c0 1.12.762 1.887 1.891 1.887"/><path fill="#3C2A16" d="M15.482 7.2h1.89c.197 0 .355.161.355.36s-.158.36-.354.36h-1.891a.357.357 0 0 1-.355-.36c0-.199.159-.36.355-.36"/><circle cx="10.105" cy="10.26" r="1" fill="#3C2A16"/><circle cx="15.895" cy="10.26" r="1" fill="#3C2A16"/><path fill="#3C2A16" d="M8.627 7.2h1.891c.196 0 .355.161.355.36s-.159.36-.355.36h-1.89a.357.357 0 0 1-.355-.36c0-.199.158-.36.354-.36"/><path fill="#D5A0A0" d="M12.027 12h1.946c.126 0 .23.1.236.228q.049.972-1.209.972t-1.209-.972a.24.24 0 0 1 .236-.228"/><path fill="#D27D7D" d="M11.116 15.6h3.768c.13 0 .236.108.236.24 0 .061-.023.12-.065.165q-.741.795-2.055.795t-2.055-.795a.243.243 0 0 1 .01-.34.23.23 0 0 1 .161-.065"/><circle cx="16.545" cy="27" r="1" fill="#D6E1EA"/><circle cx="16.545" cy="29.4" r="1" fill="#D6E1EA"/></g></g></g></svg>